<svg width="1600" height="812" viewBox="0 0 1600 812" fill="none" xmlns="http://www.w3.org/2000/svg">
<path d="M-419.119 763.906C-419.119 763.906 -291.26 579.606 496.127 514.748C1283.51 449.889 1641.47 146.858 1700.57 17.3526" stroke="url(#paint0_linear_86_17)" stroke-width="1.32107" stroke-miterlimit="10"/>
<path d="M-415.223 766.714C-415.223 766.714 -324.172 633.386 189.523 540.899C278.382 524.79 380.114 511.553 495.691 501.632C964.11 461.525 1295.44 354.82 1481.03 238.6C1609.23 158.93 1683.19 72.7224 1705.46 23.9362" stroke="url(#paint1_linear_86_17)" stroke-width="1.32107" stroke-miterlimit="10"/>
<path d="M-411.321 769.51C-411.321 769.51 -322.235 636.916 189.243 531.649C277.99 513.172 379.917 498.819 495.266 488.524C961.149 447.104 1306.1 357.104 1486.03 246.376C1613.4 167.994 1689.58 76.063 1710.36 30.5274" stroke="url(#paint2_linear_86_17)" stroke-width="1.32107" stroke-miterlimit="10"/>
<path d="M-407.416 772.307C-407.416 772.307 -320.293 640.456 188.973 522.389C277.608 501.542 379.73 486.074 494.839 475.398C958.189 432.675 1316.99 359.722 1491.03 254.122C1617.74 177.245 1695.96 79.3624 1715.26 37.0774" stroke="url(#paint3_linear_86_17)" stroke-width="1.32107" stroke-miterlimit="10"/>
<path d="M-403.513 775.103C-403.513 775.103 -318.353 643.996 188.691 513.13C277.223 489.912 379.521 473.333 494.402 462.283C955.216 418.247 1327.89 362.386 1496.02 261.89C1622.06 186.54 1702.34 82.6956 1720.15 43.6611" stroke="url(#paint4_linear_86_17)" stroke-width="1.32107" stroke-miterlimit="10"/>
<path d="M-399.607 777.91C-399.607 777.91 -316.084 648.645 188.423 503.879C276.9 478.493 379.335 460.597 493.988 449.174C952.267 403.825 1338.85 365.104 1501.03 269.655C1626.43 195.857 1708.73 86.0249 1725.06 50.241" stroke="url(#paint5_linear_86_17)" stroke-width="1.32107" stroke-miterlimit="10"/>
<path d="M-395.703 780.706C-395.703 780.706 -314.094 652.258 188.142 494.62C276.521 466.882 379.134 447.844 493.55 436.048C949.292 389.387 1349.81 367.841 1506.01 277.413C1630.78 205.188 1715.09 89.3403 1729.94 56.8146" stroke="url(#paint6_linear_86_17)" stroke-width="1.32107" stroke-miterlimit="10"/>
<path d="M-391.81 783.502C-391.81 783.502 -312.121 655.842 187.86 485.359C276.14 455.26 378.936 435.098 493.123 422.929C946.332 374.964 1360.81 370.621 1511.01 285.178C1635.17 214.541 1721.47 92.6698 1734.84 63.3946" stroke="url(#paint7_linear_86_17)" stroke-width="1.32107" stroke-miterlimit="10"/>
<path d="M-387.905 786.311C-387.905 786.311 -310.137 659.384 187.581 476.113C275.748 443.645 378.729 422.37 492.687 409.817C943.36 360.539 1371.82 373.455 1516 292.937C1639.57 223.927 1727.85 95.9929 1739.73 69.9682" stroke="url(#paint8_linear_86_17)" stroke-width="1.32107" stroke-miterlimit="10"/>
<path d="M-384 789.106C-384 789.106 -308.185 662.878 187.313 466.861C275.378 432.022 378.544 409.633 492.274 396.706C940.411 346.115 1382.89 376.338 1521.01 300.711C1644 233.355 1734.25 99.3206 1744.64 76.5567" stroke="url(#paint9_linear_86_17)" stroke-width="1.32107" stroke-miterlimit="10"/>
<path d="M-380.097 791.903C-380.097 791.903 -306.241 666.342 187.031 457.602C274.991 420.382 378.345 396.889 491.837 383.591C937.438 331.687 1393.96 379.264 1525.99 308.47C1648.44 242.816 1740.62 102.644 1749.52 83.1333" stroke="url(#paint10_linear_86_17)" stroke-width="1.32107" stroke-miterlimit="10"/>
<path d="M-376.194 794.699C-376.194 794.699 -304.316 669.768 186.761 448.341C274.603 408.731 378.156 384.144 491.419 370.462C934.487 317.255 1405.07 382.234 1531 316.224C1652.92 252.321 1747.01 105.963 1754.42 89.7026" stroke="url(#paint11_linear_86_17)" stroke-width="1.32107" stroke-miterlimit="10"/>
<path d="M-372.297 797.508C-372.297 797.508 -302.835 672.315 186.472 439.095C274.128 396.941 377.951 371.413 490.975 357.359C931.507 302.839 1416.18 385.277 1535.98 323.995C1657.4 261.888 1753.37 109.299 1759.3 96.2889" stroke="url(#paint12_linear_86_17)" stroke-width="1.32107" stroke-miterlimit="10"/>
<path d="M-368.394 800.303C-368.394 800.303 -300.896 675.844 186.201 429.833C273.745 385.31 377.752 358.668 490.559 344.239C928.556 288.406 1427.35 388.35 1540.99 331.756C1661.95 271.514 1759.77 112.614 1764.22 102.865" stroke="url(#paint13_linear_86_17)" stroke-width="1.32107" stroke-miterlimit="10"/>
<path d="M-364.491 803.1C-364.491 803.1 -298.956 679.384 185.919 420.574C273.35 373.683 377.553 345.926 490.119 331.114C925.58 273.969 1438.52 391.477 1545.97 339.506C1666.5 281.217 1766.13 115.931 1769.1 109.43" stroke="url(#paint14_linear_86_17)" stroke-width="1.32107" stroke-miterlimit="10"/>
<path d="M-360.585 805.905C-360.585 805.905 -297.013 682.932 185.652 411.332C272.981 362.069 377.369 333.198 489.708 318.013C922.635 259.565 1449.73 394.699 1550.99 347.289C1671.12 291.049 1772.53 119.278 1774.01 116.017" stroke="url(#paint15_linear_86_17)" stroke-width="1.32107" stroke-miterlimit="10"/>
<path d="M-356.682 808.701C-356.682 808.701 -295.074 686.462 185.371 402.073C607.428 152.246 1436.19 409.128 1555.97 355.048C1675.76 300.965 1778.9 122.592 1778.9 122.592" stroke="url(#paint16_linear_86_17)" stroke-width="1.32107" stroke-miterlimit="10"/>
<path d="M-348.91 808.464C-347.266 806.962 -271.541 689.011 192.365 416.458C238.18 389.755 288.288 368.398 341.321 351.929C765.198 220.273 1423.23 395.146 1541.86 342.172C1663.21 287.676 1766.28 117.853 1766.28 117.853" stroke="url(#paint17_linear_86_17)" stroke-width="1.32107" stroke-miterlimit="10"/>
<path d="M-341.138 808.224C-337.861 805.222 -248.886 690.065 199.368 430.838C244.944 404.481 294.447 383.139 346.342 366.427C750.873 236.171 1397.22 387.035 1527.75 329.294C1650.64 274.388 1753.65 113.103 1753.65 113.103" stroke="url(#paint18_linear_86_17)" stroke-width="1.32107" stroke-miterlimit="10"/>
<path d="M-333.366 807.986C-328.445 803.483 -225.701 692.001 206.362 445.223C251.751 419.295 300.598 397.894 351.355 380.939C736.576 252.235 1371.36 379.276 1513.63 316.417C1638.21 261.38 1741.04 108.362 1741.04 108.362" stroke="url(#paint19_linear_86_17)" stroke-width="1.32107" stroke-miterlimit="10"/>
<path d="M-325.595 807.748C-319.03 801.742 -202.46 694.04 213.355 459.606C258.559 434.118 306.754 412.669 356.368 395.449C722.295 268.455 1345.39 371.254 1499.52 303.54C1625.68 248.128 1728.42 103.612 1728.42 103.612" stroke="url(#paint20_linear_86_17)" stroke-width="1.32107" stroke-miterlimit="10"/>
<path d="M-317.822 807.507C-309.614 799.999 -179.14 696.177 220.359 473.986C265.381 448.947 312.922 427.449 361.381 409.959C708.053 284.835 1319.41 363.211 1485.4 290.673C1613.12 234.859 1715.79 98.8734 1715.79 98.8734" stroke="url(#paint21_linear_86_17)" stroke-width="1.32107" stroke-miterlimit="10"/>
<path d="M-310.051 807.27C-300.209 798.263 -155.766 698.421 227.352 488.371C272.202 463.779 319.072 442.249 366.391 424.461C693.843 301.404 1293.42 355.141 1471.29 277.788C1600.56 221.574 1703.16 94.1258 1703.16 94.1258" stroke="url(#paint22_linear_86_17)" stroke-width="1.32107" stroke-miterlimit="10"/>
<path d="M-302.279 807.031C-290.793 796.521 -132.323 700.765 234.346 502.754C279.029 478.629 325.228 457.065 371.405 438.971C679.69 318.159 1267.42 347.06 1457.18 264.909C1588.01 208.272 1690.54 89.3753 1690.54 89.3753" stroke="url(#paint23_linear_86_17)" stroke-width="1.32107" stroke-miterlimit="10"/>
<path d="M-294.508 806.791C-281.379 794.78 -108.825 703.213 241.338 517.136C285.854 493.479 331.389 471.912 376.417 453.481C665.582 335.117 1241.4 338.971 1443.06 252.044C1575.43 194.976 1677.92 84.6451 1677.92 84.6451" stroke="url(#paint24_linear_86_17)" stroke-width="1.32107" stroke-miterlimit="10"/>
<path d="M-286.735 806.551C-271.962 793.038 -85.2534 705.782 248.343 531.517C292.706 508.345 337.578 486.775 381.439 467.979C651.566 352.269 1215.41 330.858 1428.95 239.153C1562.87 181.645 1665.31 79.8823 1665.31 79.8823" stroke="url(#paint25_linear_86_17)" stroke-width="1.32107" stroke-miterlimit="10"/>
<path d="M-278.965 806.314C-262.558 791.301 -61.6242 708.469 255.338 545.912C299.551 523.236 343.753 501.685 386.443 482.504C637.605 369.665 1189.38 322.744 1414.83 226.29C1550.29 168.341 1652.68 75.1467 1652.68 75.1467" stroke="url(#paint26_linear_86_17)" stroke-width="1.32107" stroke-miterlimit="10"/>
<path d="M-271.194 806.064C-253.144 789.549 -37.9367 711.257 262.329 560.284C306.398 538.124 349.946 516.61 391.454 497.003C623.748 387.26 1163.18 314.176 1400.71 213.414C1537.61 154.771 1640.05 70.4085 1640.05 70.4085" stroke="url(#paint27_linear_86_17)" stroke-width="1.32107" stroke-miterlimit="10"/>
<path d="M-263.422 805.827C-243.728 787.81 -14.1832 714.192 269.333 574.667C313.272 553.04 356.183 531.592 396.478 511.514C610.023 405.104 1137.18 306.076 1386.61 200.536C1525.07 141.47 1627.43 65.658 1627.43 65.658" stroke="url(#paint28_linear_86_17)" stroke-width="1.32107" stroke-miterlimit="10"/>
<path d="M-255.651 805.587C-234.323 786.071 9.62107 717.252 276.326 589.049C320.142 567.986 362.431 546.622 401.488 526.013C596.418 423.183 1111.17 297.977 1372.5 187.657C1512.5 128.181 1614.81 60.9175 1614.81 60.9175" stroke="url(#paint29_linear_86_17)" stroke-width="1.32107" stroke-miterlimit="10"/>
<path d="M-247.879 805.349C-224.907 784.331 33.4873 720.437 283.32 603.433C327.029 582.962 368.717 561.719 406.491 540.527C582.987 441.501 1085.15 289.88 1358.38 174.783C1499.94 114.884 1602.19 56.1683 1602.19 56.1683" stroke="url(#paint30_linear_86_17)" stroke-width="1.32107" stroke-miterlimit="10"/>
<path d="M-240.107 805.11C-215.492 782.589 57.3994 723.771 290.323 617.814C333.947 597.972 375.074 576.894 411.514 555.035C569.775 460.066 1059.16 281.787 1344.26 161.905C1487.38 101.596 1589.57 51.418 1589.57 51.418" stroke="url(#paint31_linear_86_17)" stroke-width="1.32107" stroke-miterlimit="10"/>
<path d="M-232.334 804.871C-200.787 776.001 207.885 704.428 416.526 569.536C625.167 434.643 1576.95 46.6685 1576.95 46.6685" stroke="url(#paint32_linear_86_17)" stroke-width="1.32107" stroke-miterlimit="10"/>
<defs>
<linearGradient id="paint0_linear_86_17" x1="613.348" y1="275.166" x2="668.953" y2="509.657" gradientUnits="userSpaceOnUse">
<stop stop-color="#312414"/>
<stop offset="1" stop-color="#43331E"/>
</linearGradient>
<linearGradient id="paint1_linear_86_17" x1="618.19" y1="281.761" x2="672.049" y2="508.89" gradientUnits="userSpaceOnUse">
<stop stop-color="#312414"/>
<stop offset="1" stop-color="#43331E"/>
</linearGradient>
<linearGradient id="paint2_linear_86_17" x1="623.043" y1="288.363" x2="675.997" y2="511.675" gradientUnits="userSpaceOnUse">
<stop stop-color="#312414"/>
<stop offset="1" stop-color="#43331E"/>
</linearGradient>
<linearGradient id="paint3_linear_86_17" x1="627.894" y1="294.925" x2="679.952" y2="514.46" gradientUnits="userSpaceOnUse">
<stop stop-color="#312414"/>
<stop offset="1" stop-color="#43331E"/>
</linearGradient>
<linearGradient id="paint4_linear_86_17" x1="632.74" y1="301.518" x2="683.896" y2="517.246" gradientUnits="userSpaceOnUse">
<stop stop-color="#312414"/>
<stop offset="1" stop-color="#43331E"/>
</linearGradient>
<linearGradient id="paint5_linear_86_17" x1="637.597" y1="308.11" x2="687.852" y2="520.041" gradientUnits="userSpaceOnUse">
<stop stop-color="#312414"/>
<stop offset="1" stop-color="#43331E"/>
</linearGradient>
<linearGradient id="paint6_linear_86_17" x1="642.442" y1="314.693" x2="691.796" y2="522.827" gradientUnits="userSpaceOnUse">
<stop stop-color="#312414"/>
<stop offset="1" stop-color="#43331E"/>
</linearGradient>
<linearGradient id="paint7_linear_86_17" x1="647.288" y1="321.285" x2="695.74" y2="525.612" gradientUnits="userSpaceOnUse">
<stop stop-color="#312414"/>
<stop offset="1" stop-color="#43331E"/>
</linearGradient>
<linearGradient id="paint8_linear_86_17" x1="652.138" y1="327.87" x2="699.692" y2="528.41" gradientUnits="userSpaceOnUse">
<stop stop-color="#312414"/>
<stop offset="1" stop-color="#43331E"/>
</linearGradient>
<linearGradient id="paint9_linear_86_17" x1="656.998" y1="334.47" x2="703.647" y2="531.193" gradientUnits="userSpaceOnUse">
<stop stop-color="#312414"/>
<stop offset="1" stop-color="#43331E"/>
</linearGradient>
<linearGradient id="paint10_linear_86_17" x1="660.006" y1="333.337" x2="707.585" y2="533.981" gradientUnits="userSpaceOnUse">
<stop stop-color="#312414"/>
<stop offset="1" stop-color="#43331E"/>
</linearGradient>
<linearGradient id="paint11_linear_86_17" x1="660.405" y1="321.13" x2="711.539" y2="536.765" gradientUnits="userSpaceOnUse">
<stop stop-color="#312414"/>
<stop offset="1" stop-color="#43331E"/>
</linearGradient>
<linearGradient id="paint12_linear_86_17" x1="660.747" y1="308.77" x2="715.476" y2="539.564" gradientUnits="userSpaceOnUse">
<stop stop-color="#312414"/>
<stop offset="1" stop-color="#43331E"/>
</linearGradient>
<linearGradient id="paint13_linear_86_17" x1="661.102" y1="296.352" x2="719.435" y2="542.347" gradientUnits="userSpaceOnUse">
<stop stop-color="#312414"/>
<stop offset="1" stop-color="#43331E"/>
</linearGradient>
<linearGradient id="paint14_linear_86_17" x1="661.419" y1="283.848" x2="723.378" y2="545.134" gradientUnits="userSpaceOnUse">
<stop stop-color="#312414"/>
<stop offset="1" stop-color="#43331E"/>
</linearGradient>
<linearGradient id="paint15_linear_86_17" x1="661.735" y1="271.285" x2="727.334" y2="547.926" gradientUnits="userSpaceOnUse">
<stop stop-color="#312414"/>
<stop offset="1" stop-color="#43331E"/>
</linearGradient>
<linearGradient id="paint16_linear_86_17" x1="662.02" y1="258.641" x2="731.491" y2="551.61" gradientUnits="userSpaceOnUse">
<stop stop-color="#312414"/>
<stop offset="1" stop-color="#43331E"/>
</linearGradient>
<linearGradient id="paint17_linear_86_17" x1="663.689" y1="273.416" x2="729.903" y2="552.645" gradientUnits="userSpaceOnUse">
<stop stop-color="#312414"/>
<stop offset="1" stop-color="#43331E"/>
</linearGradient>
<linearGradient id="paint18_linear_86_17" x1="665.332" y1="288.079" x2="728.526" y2="554.575" gradientUnits="userSpaceOnUse">
<stop stop-color="#312414"/>
<stop offset="1" stop-color="#43331E"/>
</linearGradient>
<linearGradient id="paint19_linear_86_17" x1="666.955" y1="302.635" x2="727.155" y2="556.505" gradientUnits="userSpaceOnUse">
<stop stop-color="#312414"/>
<stop offset="1" stop-color="#43331E"/>
</linearGradient>
<linearGradient id="paint20_linear_86_17" x1="668.536" y1="317.04" x2="725.778" y2="558.436" gradientUnits="userSpaceOnUse">
<stop stop-color="#312414"/>
<stop offset="1" stop-color="#43331E"/>
</linearGradient>
<linearGradient id="paint21_linear_86_17" x1="670.07" y1="331.259" x2="724.398" y2="560.366" gradientUnits="userSpaceOnUse">
<stop stop-color="#312414"/>
<stop offset="1" stop-color="#43331E"/>
</linearGradient>
<linearGradient id="paint22_linear_86_17" x1="670.093" y1="339.098" x2="723.021" y2="562.298" gradientUnits="userSpaceOnUse">
<stop stop-color="#312414"/>
<stop offset="1" stop-color="#43331E"/>
</linearGradient>
<linearGradient id="paint23_linear_86_17" x1="666.619" y1="332.178" x2="721.645" y2="564.228" gradientUnits="userSpaceOnUse">
<stop stop-color="#312414"/>
<stop offset="1" stop-color="#43331E"/>
</linearGradient>
<linearGradient id="paint24_linear_86_17" x1="663.148" y1="325.278" x2="720.267" y2="566.158" gradientUnits="userSpaceOnUse">
<stop stop-color="#312414"/>
<stop offset="1" stop-color="#43331E"/>
</linearGradient>
<linearGradient id="paint25_linear_86_17" x1="659.676" y1="318.348" x2="718.897" y2="568.086" gradientUnits="userSpaceOnUse">
<stop stop-color="#312414"/>
<stop offset="1" stop-color="#43331E"/>
</linearGradient>
<linearGradient id="paint26_linear_86_17" x1="656.198" y1="311.441" x2="717.515" y2="570.019" gradientUnits="userSpaceOnUse">
<stop stop-color="#312414"/>
<stop offset="1" stop-color="#43331E"/>
</linearGradient>
<linearGradient id="paint27_linear_86_17" x1="652.721" y1="304.533" x2="716.131" y2="571.94" gradientUnits="userSpaceOnUse">
<stop stop-color="#312414"/>
<stop offset="1" stop-color="#43331E"/>
</linearGradient>
<linearGradient id="paint28_linear_86_17" x1="649.252" y1="297.614" x2="714.761" y2="573.871" gradientUnits="userSpaceOnUse">
<stop stop-color="#312414"/>
<stop offset="1" stop-color="#43331E"/>
</linearGradient>
<linearGradient id="paint29_linear_86_17" x1="645.779" y1="290.704" x2="713.384" y2="575.8" gradientUnits="userSpaceOnUse">
<stop stop-color="#312414"/>
<stop offset="1" stop-color="#43331E"/>
</linearGradient>
<linearGradient id="paint30_linear_86_17" x1="642.304" y1="283.786" x2="712.008" y2="577.731" gradientUnits="userSpaceOnUse">
<stop stop-color="#312414"/>
<stop offset="1" stop-color="#43331E"/>
</linearGradient>
<linearGradient id="paint31_linear_86_17" x1="638.829" y1="276.866" x2="710.631" y2="579.661" gradientUnits="userSpaceOnUse">
<stop stop-color="#312414"/>
<stop offset="1" stop-color="#43331E"/>
</linearGradient>
<linearGradient id="paint32_linear_86_17" x1="635.356" y1="269.948" x2="709.256" y2="581.592" gradientUnits="userSpaceOnUse">
<stop stop-color="#312414"/>
<stop offset="1" stop-color="#43331E"/>
</linearGradient>
</defs>
</svg>
